<svg id="Layer_1" data-name="Layer 1" xmlns="http://www.w3.org/2000/svg" viewBox="0 0 801.38 705.12"><defs><style>.cls-1{fill:#231f20;stroke:#231f20;stroke-width:4px;}.cls-1,.cls-15,.cls-16,.cls-3{stroke-miterlimit:10;}.cls-10,.cls-11,.cls-12,.cls-13,.cls-14,.cls-15,.cls-2,.cls-4,.cls-5,.cls-6,.cls-7,.cls-8,.cls-9{fill:#fff;}.cls-10,.cls-11,.cls-12,.cls-13,.cls-14,.cls-15,.cls-16,.cls-2,.cls-3,.cls-4,.cls-5,.cls-6,.cls-7,.cls-8,.cls-9{stroke:#fff;}.cls-2{stroke-miterlimit:10;stroke-width:3px;}.cls-16,.cls-3{fill:none;}.cls-3{stroke-width:3px;}.cls-4{stroke-miterlimit:10;stroke-width:3px;}.cls-5{stroke-miterlimit:10;stroke-width:3px;}.cls-6{stroke-miterlimit:10;stroke-width:3px;}.cls-7{stroke-miterlimit:10;stroke-width:3px;}.cls-8{stroke-miterlimit:10;stroke-width:3px;}.cls-9{stroke-miterlimit:10;stroke-width:3px;}.cls-10{stroke-miterlimit:10;stroke-width:3px;}.cls-11{stroke-miterlimit:10;stroke-width:3px;}.cls-12{stroke-miterlimit:10;stroke-width:3px;}.cls-13{stroke-miterlimit:10.03;stroke-width:3.01px;}.cls-14{stroke-miterlimit:10.03;stroke-width:3.01px;}.cls-16{stroke-width:22px;}</style></defs><title>sonic_logo</title><path class="cls-1" d="M763.19,101c-210.56-8.69-280.78,89.3-280.78,89.3s245,39.08,315,265.38C681.85,358,556.49,397,556.49,397S632.4,540,596,700.08C485.87,531.3,409.81,491,339.14,505.29,238.61,525.64,108,531.34,49.35,466.21-124,265.15,193.36-200.79,763.19,101Z" transform="translate(0 0)"/><g id="expanded_sonophore" data-name="expanded sonophore"><g id="upper_leaflet" data-name="upper leaflet"><circle class="cls-2" cx="274.55" cy="183.77" r="11.69"/><path class="cls-3" d="M280.17,193.89A12.41,12.41,0,0,1,280,206.1c-4,6.94-2.09,15.48,2.09,22.49" transform="translate(0 0)"/><path class="cls-3" d="M269.34,195.4s-3.38,6-.16,12.21c4.43,8.56,6.21,15.58,1.83,22.32" transform="translate(0 0)"/><circle class="cls-4" cx="123.04" cy="236.35" r="11.69"/><path class="cls-3" d="M133.16,242a12.41,12.41,0,0,1,6.28,10.47c.22,8,6.37,14.27,13.62,18" transform="translate(0 0)"/><path class="cls-3" d="M124.73,249s.28,6.86,6.29,10.46c8.25,5,13.49,10,13.32,18" transform="translate(0 0)"/><circle class="cls-5" cx="149.79" cy="217.87" r="11.69"/><path class="cls-3" d="M159.35,224.41a12.44,12.44,0,0,1,5.31,11c-.51,8,5,14.78,11.91,19.2" transform="translate(0 0)"/><path class="cls-3" d="M150.32,230.64s-.34,6.87,5.31,11c7.78,5.69,12.52,11.18,11.62,19.15" transform="translate(0 0)"/><circle class="cls-6" cx="181.24" cy="201.92" r="11.69"/><path class="cls-3" d="M189.71,209.82a12.41,12.41,0,0,1,3.58,11.66c-1.72,7.85,2.75,15.38,8.88,20.78" transform="translate(0 0)"/><path class="cls-3" d="M179.85,214.59s-1.37,6.73,3.59,11.67c6.84,6.8,10.68,13,8.6,20.68" transform="translate(0 0)"/><circle class="cls-7" cx="213.2" cy="191.05" r="11.69"/><path class="cls-3" d="M220.5,200.05a12.4,12.4,0,0,1,1.95,12c-2.74,7.54.62,15.58,6,21.8" transform="translate(0 0)"/><path class="cls-3" d="M210.09,203.41s-2.28,6.48,1.95,12.06c5.84,7.67,8.82,14.29,5.69,21.65" transform="translate(0 0)"/><circle class="cls-8" cx="243.43" cy="185.57" r="11.69"/><path class="cls-3" d="M249.93,195.17a12.42,12.42,0,0,1,.92,12.18c-3.41,7.26-.73,15.58,4.07,22.22" transform="translate(0 0)"/><path class="cls-3" d="M239.26,197.65s-2.83,6.26.92,12.18c5.16,8.14,7.56,15,3.81,22.07" transform="translate(0 0)"/><circle class="cls-2" cx="303.6" cy="182.68" r="11.69"/><path class="cls-3" d="M298,192.82a12.44,12.44,0,0,0,.15,12.21c4.05,6.94,2.09,15.48-2.09,22.49" transform="translate(0 0)"/><path class="cls-3" d="M308.79,194.34s3.37,6,.16,12.21c-4.43,8.56-6.22,15.58-1.84,22.32" transform="translate(0 0)"/><circle class="cls-4" cx="455.08" cy="235.28" r="11.69" transform="translate(19.12 504.33) rotate(-59.02)"/><path class="cls-3" d="M445,240.93a12.42,12.42,0,0,0-6.29,10.47c-.21,8-6.36,14.27-13.61,18" transform="translate(0 0)"/><path class="cls-3" d="M453.39,247.92s-.27,6.87-6.28,10.47c-8.25,5-13.5,10-13.32,18" transform="translate(0 0)"/><circle class="cls-9" cx="428.34" cy="216.79" r="11.69" transform="translate(46.94 508.34) rotate(-64.24)"/><path class="cls-3" d="M418.78,223.31a12.44,12.44,0,0,0-5.3,11c.51,8-5,14.78-11.92,19.2" transform="translate(0 0)"/><path class="cls-3" d="M427.8,229.54s.35,6.86-5.3,11c-7.76,5.7-12.52,11.2-11.63,19.15" transform="translate(0 0)"/><circle class="cls-10" cx="396.86" cy="200.82" r="11.69"/><path class="cls-3" d="M388.42,208.75a12.4,12.4,0,0,0-3.58,11.68c1.72,7.84-2.75,15.37-8.88,20.77" transform="translate(0 0)"/><path class="cls-3" d="M398.25,213.51s1.37,6.74-3.59,11.68c-6.84,6.8-10.69,12.95-8.6,20.68" transform="translate(0 0)"/><circle class="cls-11" cx="364.94" cy="189.98" r="11.69"/><path class="cls-3" d="M357.62,199A12.45,12.45,0,0,0,355.67,211c2.75,7.54-.61,15.58-6,21.8" transform="translate(0 0)"/><path class="cls-3" d="M368,202.35s2.28,6.48-1.95,12.05c-5.84,7.68-8.82,14.29-5.69,21.66" transform="translate(0 0)"/><circle class="cls-12" cx="334.72" cy="184.52" r="11.69"/><path class="cls-3" d="M328.19,194.1a12.44,12.44,0,0,0-.91,12.18c3.41,7.27.72,15.58-4.07,22.23" transform="translate(0 0)"/><path class="cls-3" d="M338.86,196.57s2.84,6.26-.91,12.18c-5.17,8.15-7.53,15-3.86,22.06" transform="translate(0 0)"/></g><g id="lower_leaflet" data-name="lower leaflet"><circle class="cls-2" cx="305.45" cy="375.62" r="11.69"/><path class="cls-3" d="M299.79,365.48a12.41,12.41,0,0,1,.16-12.21c4-6.94,2.09-15.48-2.09-22.49" transform="translate(0 0)"/><path class="cls-3" d="M310.62,364s3.38-6,.16-12.2c-4.43-8.57-6.21-15.59-1.83-22.32" transform="translate(0 0)"/><circle class="cls-4" cx="456.92" cy="323.03" r="11.69" transform="translate(-101.1 281.28) rotate(-30.98)"/><path class="cls-3" d="M446.82,317.38a12.45,12.45,0,0,1-6.29-10.47c-.21-8-6.36-14.27-13.61-18" transform="translate(0 0)"/><path class="cls-3" d="M455.23,310.38s-.28-6.86-6.29-10.46c-8.25-5-13.49-10-13.32-18" transform="translate(0 0)"/><circle class="cls-5" cx="430.18" cy="341.52" r="11.69" transform="translate(-105.68 220.89) rotate(-25.76)"/><path class="cls-3" d="M420.62,335a12.42,12.42,0,0,1-5.31-11c.51-8-5-14.79-11.91-19.21" transform="translate(0 0)"/><path class="cls-3" d="M429.64,328.77s.34-6.87-5.31-11c-7.78-5.69-12.52-11.18-11.62-19.15" transform="translate(0 0)"/><circle class="cls-13" cx="399.15" cy="359.72" r="11.73"/><path class="cls-3" d="M390.25,349.55a12.44,12.44,0,0,1-3.58-11.67c1.72-7.85-2.75-15.38-8.88-20.78" transform="translate(0 0)"/><path class="cls-3" d="M400.08,344.78s1.37-6.74-3.59-11.68c-6.83-6.8-10.68-13-8.59-20.67" transform="translate(0 0)"/><circle class="cls-7" cx="366.77" cy="368.31" r="11.69"/><path class="cls-3" d="M359.46,359.32a12.41,12.41,0,0,1-1.95-12.06c2.74-7.53-.62-15.58-6-21.79" transform="translate(0 0)"/><path class="cls-3" d="M369.83,356s2.28-6.48-1.95-12.05c-5.84-7.67-8.82-14.29-5.69-21.66" transform="translate(0 0)"/><circle class="cls-14" cx="338.59" cy="373.22" r="11.73"/><path class="cls-3" d="M330,364.2a12.42,12.42,0,0,1-.92-12.18c3.41-7.27.73-15.58-4.07-22.22" transform="translate(0 0)"/><path class="cls-3" d="M340.7,361.71s2.83-6.26-.92-12.18c-5.16-8.14-7.56-15-3.81-22.07" transform="translate(0 0)"/><circle class="cls-2" cx="276.39" cy="376.66" r="11.69" transform="translate(-4.91 3.65) rotate(-0.75)"/><path class="cls-3" d="M282,366.55a12.41,12.41,0,0,0-.15-12.17c-4.05-6.94-2.09-15.48,2.09-22.5" transform="translate(0 0)"/><path class="cls-3" d="M271.17,365s-3.37-6-.16-12.21c4.43-8.56,6.22-15.58,1.84-22.32" transform="translate(0 0)"/><circle class="cls-4" cx="124.87" cy="324.08" r="11.69"/><path class="cls-3" d="M135,318.44A12.45,12.45,0,0,0,141.28,308c.21-8,6.36-14.27,13.61-18" transform="translate(0 0)"/><path class="cls-3" d="M126.57,311.45s.27-6.87,6.28-10.47c8.25-5,13.5-10,13.32-18" transform="translate(0 0)"/><circle class="cls-9" cx="151.61" cy="342.57" r="11.69"/><path class="cls-3" d="M161.18,336.05a12.42,12.42,0,0,0,5.31-11c-.51-8,5-14.79,11.92-19.2" transform="translate(0 0)"/><path class="cls-3" d="M152.16,329.83s-.35-6.86,5.3-11c7.78-5.7,12.57-11.2,11.65-19.13" transform="translate(0 0)"/><circle class="cls-10" cx="183.07" cy="358.51" r="11.69"/><path class="cls-3" d="M191.54,350.62a12.41,12.41,0,0,0,3.58-11.68c-1.72-7.84,2.75-15.38,8.88-20.78" transform="translate(0 0)"/><path class="cls-3" d="M181.69,345.85s-1.38-6.73,3.58-11.67c6.84-6.8,10.69-12.95,8.6-20.68" transform="translate(0 0)"/><circle class="cls-11" cx="215.04" cy="369.39" r="11.69" transform="translate(-184.03 522.47) rotate(-80.78)"/><path class="cls-3" d="M222.34,360.39a12.45,12.45,0,0,0,1.95-12.05c-2.75-7.54.61-15.58,6-21.8" transform="translate(0 0)"/><path class="cls-3" d="M211.92,357s-2.28-6.48,2-12.06c5.83-7.67,8.81-14.28,5.69-21.65" transform="translate(0 0)"/><circle class="cls-12" cx="245.27" cy="374.87" r="11.69" transform="translate(-146.97 591.27) rotate(-85.69)"/><path class="cls-3" d="M251.77,365.26a12.44,12.44,0,0,0,.91-12.18c-3.41-7.26-.72-15.58,4.07-22.22" transform="translate(0 0)"/><path class="cls-3" d="M241.1,362.8s-2.84-6.26.91-12.18c5.16-8.14,7.56-15,3.82-22.07" transform="translate(0 0)"/></g><g id="proteins"><ellipse class="cls-15" cx="89.83" cy="284.77" rx="21.54" ry="62.78"/><ellipse class="cls-15" cx="490.36" cy="282.02" rx="21.54" ry="62.78"/></g></g><path class="cls-16" d="M99.53,425.45c64.81-1.32,83.65,9.73,106-36C225.24,349.23,250.3,115.15,261,115.15s18.2,326.16,57.39,335.59c23.35,5.62,43.77-69.06,178.53-73.78" transform="translate(0 0)"/></svg>