<svg xmlns="http://www.w3.org/2000/svg" viewBox="0 0 173.62 119.98"><title>Asset 2</title><g id="Layer_2" data-name="Layer 2"><g id="Logos"><g id="ITIS"><path d="M36.85,119.91,47.31,70.08H35c1.27-6,2.31-11.55,3.67-17a3.63,3.63,0,0,1,2.76-2C55.32,51,69.23,51,83.63,51c-1.18,5.66-2.4,10.86-3.31,16.11-.43,2.5-1.69,3-4,3-9.06.24-9.14.29-11,9q-4,18.59-7.85,37.23c-.49,2.38-1.24,3.67-4,3.57C48.12,119.77,42.74,119.91,36.85,119.91Z"/><path d="M107.9,70l4-18.67c10.45,1.64,14.45-5,17.93-13.14S137,21.72,141.9,14.37c6-9,15.38-13.45,26.24-14.34a38.14,38.14,0,0,1,5.48.4l-5.93,20.09c-8-.9-11.86,4.24-14.73,10.26-2.24,4.7-3.68,9.77-5.79,14.53-6.18,13.93-15.61,24-31.76,25.55a20.49,20.49,0,0,1-4-.12A34.52,34.52,0,0,1,107.9,70Z"/><path d="M14.52,51.22H34.34l-14.52,68.4H0Z"/><path d="M84.21,70.08c1.39-6.89,2.6-13.14,3.92-19.36,3.22-15.16,6.56-30.29,9.67-45.46.6-2.91,1.76-4,4.73-3.82,5.19.23,10.4.06,16,.06-3.47,16.36-6.83,32.22-10.2,48.09-1.24,5.83-2.42,11.67-3.84,17.45-.28,1.14-1.54,2.87-2.41,2.9C96.28,70.2,90.49,70.08,84.21,70.08Z"/></g></g></g></svg>