<svg xmlns="http://www.w3.org/2000/svg" viewBox="0 0 484 357.05"><defs><style>.cls-1,.cls-2{fill:#231f20;}.cls-2,.cls-3{stroke:#231f20;stroke-miterlimit:10;stroke-width:3px;}.cls-3{fill:none;}</style></defs><title>Asset 1</title><g id="Layer_2" data-name="Layer 2"><g id="expanded_sonophore" data-name="expanded sonophore"><g id="charges"><rect class="cls-1" x="60.1" y="65.96" width="28.35" height="7.09"/><rect class="cls-1" x="60.44" y="66.63" width="28.35" height="7.09" transform="translate(4.44 144.78) rotate(-90)"/><rect class="cls-1" x="62.1" y="316.2" width="28.35" height="7.09"/><rect class="cls-1" x="165.1" y="348.96" width="28.35" height="7.09"/><rect class="cls-1" x="280.1" y="349.96" width="28.35" height="7.09"/><rect class="cls-1" x="391.1" y="313.96" width="28.35" height="7.09"/><rect class="cls-1" x="148.56" y="15.64" width="28.35" height="7.09"/><rect class="cls-1" x="148.89" y="16.3" width="28.35" height="7.09" transform="translate(143.22 182.91) rotate(-90)"/><rect class="cls-1" x="264.1" y="9.96" width="28.35" height="7.09"/><rect class="cls-1" x="264.44" y="10.63" width="28.35" height="7.09" transform="translate(264.44 292.78) rotate(-90)"/><rect class="cls-1" x="385.56" y="42.64" width="28.35" height="7.09"/><rect class="cls-1" x="385.89" y="43.3" width="28.35" height="7.09" transform="translate(353.22 446.91) rotate(-90)"/></g><g id="upper_leaflet" data-name="upper leaflet"><circle class="cls-2" cx="225.02" cy="80.85" r="12.76" transform="translate(141.25 304.8) rotate(-89.25)"/><path class="cls-3" d="M231.17,91.9a13.56,13.56,0,0,1-.17,13.32c-4.41,7.57-2.28,16.89,2.28,24.54"/><path class="cls-3" d="M219.35,93.55s-3.68,6.53-.17,13.32c4.83,9.34,6.78,17,2,24.35"/><circle class="cls-2" cx="59.73" cy="138.22" r="12.76" transform="translate(-62.63 50.47) rotate(-30.98)"/><path class="cls-3" d="M70.77,144.39a13.56,13.56,0,0,1,6.86,11.42c.23,8.76,6.94,15.57,14.85,19.68"/><path class="cls-3" d="M61.58,152s.3,7.49,6.86,11.42c9,5.41,14.72,10.91,14.53,19.65"/><circle class="cls-2" cx="88.91" cy="118.06" r="12.76" transform="translate(-42.47 50.38) rotate(-25.76)"/><path class="cls-3" d="M99.35,125.2a13.56,13.56,0,0,1,5.79,12c-.56,8.75,5.5,16.13,13,20.95"/><path class="cls-3" d="M89.5,132s-.38,7.49,5.79,12c8.49,6.21,13.66,12.2,12.68,20.89"/><circle class="cls-2" cx="123.23" cy="100.65" r="12.76" transform="translate(-24.13 40.64) rotate(-17.08)"/><path class="cls-3" d="M132.47,109.28A13.56,13.56,0,0,1,136.38,122c-1.88,8.56,3,16.78,9.69,22.67"/><path class="cls-3" d="M121.72,114.48s-1.5,7.35,3.91,12.74c7.46,7.42,11.66,14.13,9.38,22.56"/><circle class="cls-2" cx="158.1" cy="88.8" r="12.76" transform="translate(-12.18 26.48) rotate(-9.22)"/><path class="cls-3" d="M166.07,98.62a13.56,13.56,0,0,1,2.13,13.15c-3,8.22.67,17,6.5,23.78"/><path class="cls-3" d="M154.71,102.29s-2.49,7.07,2.13,13.15c6.37,8.37,9.62,15.59,6.21,23.63"/><circle class="cls-2" cx="191.08" cy="82.83" r="12.76" transform="translate(-5.68 14.58) rotate(-4.31)"/><path class="cls-3" d="M198.18,93.29a13.56,13.56,0,0,1,1,13.29c-3.72,7.93-.79,17,4.44,24.25"/><path class="cls-3" d="M186.54,96s-3.09,6.83,1,13.29c5.63,8.88,8.25,16.36,4.16,24.08"/><circle class="cls-2" cx="256.73" cy="79.68" r="12.76" transform="translate(-1.02 3.35) rotate(-0.75)"/><path class="cls-3" d="M250.58,90.73a13.56,13.56,0,0,0,.17,13.32c4.41,7.57,2.28,16.89-2.28,24.54"/><path class="cls-3" d="M262.4,92.39s3.68,6.53.17,13.32c-4.83,9.34-6.78,17-2,24.35"/><circle class="cls-2" cx="422.02" cy="137.06" r="12.76" transform="translate(87.27 428.32) rotate(-59.02)"/><path class="cls-3" d="M411,143.22a13.56,13.56,0,0,0-6.86,11.42c-.23,8.76-6.94,15.57-14.85,19.68"/><path class="cls-3" d="M420.17,150.85s-.3,7.49-6.86,11.42c-9,5.41-14.72,10.91-14.53,19.65"/><circle class="cls-2" cx="392.84" cy="116.89" r="12.76" transform="translate(116.83 419.88) rotate(-64.24)"/><path class="cls-3" d="M382.41,124a13.56,13.56,0,0,0-5.79,12c.56,8.75-5.49,16.13-13,20.95"/><path class="cls-3" d="M392.25,130.79s.38,7.49-5.79,12C378,149,372.8,155,373.78,163.68"/><circle class="cls-2" cx="358.52" cy="99.48" r="12.76" transform="translate(158.1 412.95) rotate(-72.92)"/><path class="cls-3" d="M349.28,108.11a13.56,13.56,0,0,0-3.91,12.74c1.88,8.56-3,16.78-9.69,22.67"/><path class="cls-3" d="M360,113.31s1.5,7.35-3.91,12.74c-7.46,7.42-11.66,14.13-9.38,22.56"/><circle class="cls-2" cx="323.65" cy="87.64" r="12.76" transform="translate(185.3 393.06) rotate(-80.78)"/><path class="cls-3" d="M315.68,97.45a13.56,13.56,0,0,0-2.13,13.15c3,8.22-.67,17-6.5,23.78"/><path class="cls-3" d="M327,101.13s2.49,7.07-2.13,13.15c-6.37,8.37-9.62,15.59-6.21,23.63"/><circle class="cls-2" cx="290.67" cy="81.67" r="12.76" transform="translate(187.41 365.38) rotate(-85.69)"/><path class="cls-3" d="M283.57,92.13a13.56,13.56,0,0,0-1,13.29c3.72,7.93.79,17-4.44,24.25"/><path class="cls-3" d="M295.21,94.82s3.09,6.83-1,13.29C288.57,117,286,124.46,290,132.18"/></g><g id="lower_leaflet" data-name="lower leaflet"><circle class="cls-2" cx="258.73" cy="290.16" r="12.76" transform="translate(-34.77 545.09) rotate(-89.25)"/><path class="cls-3" d="M252.58,279.11a13.56,13.56,0,0,1,.17-13.32c4.41-7.57,2.28-16.89-2.28-24.54"/><path class="cls-3" d="M264.4,277.46s3.68-6.53.17-13.32c-4.83-9.34-6.78-17-2-24.35"/><circle class="cls-2" cx="424.02" cy="232.79" r="12.76" transform="translate(-59.34 251.48) rotate(-30.98)"/><path class="cls-3" d="M413,226.63a13.56,13.56,0,0,1-6.86-11.42c-.23-8.76-6.94-15.57-14.85-19.68"/><path class="cls-3" d="M422.17,219s-.3-7.49-6.86-11.42c-9-5.41-14.72-10.91-14.53-19.65"/><circle class="cls-2" cx="394.84" cy="252.96" r="12.76" transform="translate(-70.7 196.75) rotate(-25.76)"/><path class="cls-3" d="M384.41,245.82a13.56,13.56,0,0,1-5.79-12c.56-8.75-5.5-16.13-13-20.95"/><path class="cls-3" d="M394.25,239.06s.38-7.49-5.79-12c-8.49-6.21-13.66-12.2-12.68-20.89"/><circle class="cls-2" cx="360.52" cy="270.36" r="12.76" transform="matrix(0.96, -0.29, 0.29, 0.96, -63.52, 117.84)"/><path class="cls-3" d="M351.28,261.73A13.56,13.56,0,0,1,347.37,249c1.88-8.56-3-16.78-9.69-22.67"/><path class="cls-3" d="M362,256.53s1.5-7.35-3.91-12.74c-7.46-7.42-11.66-14.13-9.38-22.56"/><circle class="cls-2" cx="325.65" cy="282.21" r="12.76" transform="translate(-41 55.82) rotate(-9.22)"/><path class="cls-3" d="M317.68,272.39a13.56,13.56,0,0,1-2.13-13.15c3-8.22-.67-17-6.5-23.78"/><path class="cls-3" d="M329,268.72s2.49-7.07-2.13-13.15c-6.37-8.37-9.62-15.59-6.21-23.63"/><circle class="cls-2" cx="292.67" cy="288.18" r="12.76" transform="matrix(1, -0.08, 0.08, 1, -20.81, 22.79)"/><path class="cls-3" d="M285.57,277.72a13.56,13.56,0,0,1-1-13.29c3.72-7.93.79-17-4.44-24.25"/><path class="cls-3" d="M297.21,275s3.09-6.83-1-13.29c-5.63-8.88-8.25-16.36-4.16-24.08"/><circle class="cls-2" cx="227.02" cy="291.33" r="12.76" transform="translate(-3.77 2.98) rotate(-0.75)"/><path class="cls-3" d="M233.17,280.28A13.56,13.56,0,0,0,233,267c-4.41-7.57-2.28-16.89,2.28-24.54"/><path class="cls-3" d="M221.35,278.62s-3.68-6.53-.17-13.32c4.83-9.34,6.78-17,2-24.35"/><circle class="cls-2" cx="61.73" cy="233.95" r="12.76" transform="translate(-170.62 166.45) rotate(-59.02)"/><path class="cls-3" d="M72.77,227.79a13.56,13.56,0,0,0,6.86-11.42c.23-8.76,6.94-15.57,14.85-19.68"/><path class="cls-3" d="M63.58,220.16s.3-7.49,6.86-11.42c9-5.41,14.72-10.91,14.53-19.65"/><circle class="cls-2" cx="90.91" cy="254.12" r="12.76" transform="translate(-177.47 225.55) rotate(-64.24)"/><path class="cls-3" d="M101.35,247a13.56,13.56,0,0,0,5.79-12c-.56-8.75,5.49-16.13,13-20.95"/><path class="cls-3" d="M91.5,240.22s-.38-7.49,5.79-12C105.78,222,111,216,110,207.34"/><circle class="cls-2" cx="125.23" cy="271.53" r="12.76" transform="translate(-171.11 311.47) rotate(-72.92)"/><path class="cls-3" d="M134.47,262.9a13.56,13.56,0,0,0,3.91-12.74c-1.88-8.56,3-16.78,9.69-22.67"/><path class="cls-3" d="M123.72,257.7s-1.5-7.35,3.91-12.74c7.46-7.42,11.66-14.13,9.38-22.56"/><circle class="cls-2" cx="160.1" cy="283.38" r="12.76" transform="translate(-145.26 396.01) rotate(-80.78)"/><path class="cls-3" d="M168.07,273.56a13.56,13.56,0,0,0,2.13-13.15c-3-8.22.67-17,6.5-23.78"/><path class="cls-3" d="M156.71,269.88s-2.49-7.07,2.13-13.15c6.37-8.37,9.62-15.59,6.21-23.63"/><circle class="cls-2" cx="193.08" cy="289.35" r="12.76" transform="translate(-109.95 460.15) rotate(-85.69)"/><path class="cls-3" d="M200.18,278.88a13.56,13.56,0,0,0,1-13.29c-3.72-7.93-.79-17,4.44-24.25"/><path class="cls-3" d="M188.54,276.19s-3.09-6.83,1-13.29c5.63-8.88,8.25-16.36,4.16-24.08"/></g><g id="proteins"><ellipse class="cls-1" cx="23.5" cy="191.05" rx="23.5" ry="68.5"/><ellipse class="cls-1" cx="460.5" cy="188.05" rx="23.5" ry="68.5"/></g></g></g></svg>